<svg width="389" height="391" viewBox="0 0 389 391" fill="none" xmlns="http://www.w3.org/2000/svg">
<rect x="166.5" y="83.5" width="15" height="205" rx="7.5" stroke="white" stroke-width="15"/>
<rect x="207.5" y="166.5" width="69" height="15" rx="7.5" stroke="white" stroke-width="15"/>
<rect x="320" y="98" width="30" height="32" rx="15" fill="white"/>
<rect x="207.5" y="103.5" width="15" height="185" rx="7.5" stroke="white" stroke-width="15"/>
<circle cx="114" cy="278" r="60" stroke="white" stroke-width="30"/>
<mask id="path-6-inside-1_0_1" fill="white">
<path d="M350 114C350 104.151 348.06 94.3982 344.291 85.2987C340.522 76.1993 334.997 67.9314 328.033 60.967C321.069 54.0026 312.801 48.4781 303.701 44.709C294.602 40.9399 284.849 39 275 39C265.151 39 255.398 40.9399 246.299 44.709C237.199 48.4781 228.931 54.0026 221.967 60.967C215.003 67.9314 209.478 76.1993 205.709 85.2987C201.94 94.3982 200 104.151 200 114L230 114C230 108.091 231.164 102.239 233.425 96.7792C235.687 91.3196 239.002 86.3588 243.18 82.1802C247.359 78.0016 252.32 74.6869 257.779 72.4254C263.239 70.164 269.091 69 275 69C280.909 69 286.761 70.164 292.221 72.4254C297.68 74.6869 302.641 78.0016 306.82 82.1802C310.998 86.3588 314.313 91.3196 316.575 96.7792C318.836 102.239 320 108.091 320 114H350Z"/>
</mask>
<path d="M350 114C350 104.151 348.06 94.3982 344.291 85.2987C340.522 76.1993 334.997 67.9314 328.033 60.967C321.069 54.0026 312.801 48.4781 303.701 44.709C294.602 40.9399 284.849 39 275 39C265.151 39 255.398 40.9399 246.299 44.709C237.199 48.4781 228.931 54.0026 221.967 60.967C215.003 67.9314 209.478 76.1993 205.709 85.2987C201.94 94.3982 200 104.151 200 114L230 114C230 108.091 231.164 102.239 233.425 96.7792C235.687 91.3196 239.002 86.3588 243.18 82.1802C247.359 78.0016 252.32 74.6869 257.779 72.4254C263.239 70.164 269.091 69 275 69C280.909 69 286.761 70.164 292.221 72.4254C297.68 74.6869 302.641 78.0016 306.82 82.1802C310.998 86.3588 314.313 91.3196 316.575 96.7792C318.836 102.239 320 108.091 320 114H350Z" stroke="white" stroke-width="60" mask="url(#path-6-inside-1_0_1)"/>
<mask id="path-7-inside-2_0_1" fill="white">
<path d="M0 10C0 4.47716 4.47715 0 10 0H279C339.751 0 389 49.2487 389 110V381C389 386.523 384.523 391 379 391H110C49.2487 391 0 341.751 0 281V10Z"/>
</mask>
<path d="M0 10C0 4.47716 4.47715 0 10 0H279C339.751 0 389 49.2487 389 110V381C389 386.523 384.523 391 379 391H110C49.2487 391 0 341.751 0 281V10Z" stroke="white" stroke-width="60" mask="url(#path-7-inside-2_0_1)"/>
</svg>
